<?xml version='1.0' encoding='utf-8'?>
<!DOCTYPE svg PUBLIC '-//W3C//DTD SVG 1.1//EN' 'http://www.w3.org/Graphics/SVG/1.1/DTD/svg11.dtd'>
<svg version="1.1" xmlns="http://www.w3.org/2000/svg" viewBox="0 0 512 512" xmlns:xlink="http://www.w3.org/1999/xlink" enable-background="new 0 0 512 512">
  <g>
    <path d="m501,141.3h-95.9v-39.6h33.4c17.7,0 32.3-14.6 32.3-32.3v-26.1c0-17.7-14.6-32.3-32.3-32.3h-88.6c-17.7,0-32.3,14.6-32.3,32.3v26.1c0,17.7 14.6,32.3 32.3,32.3h34.4v39.6h-256.5v-39.6h33.4c17.7,0 32.3-14.6 33.4-32.3v-26.1c0-17.7-14.6-32.3-32.3-32.3h-88.7c-17.7,0-32.3,14.6-32.3,32.3v26.1c0,17.7 14.6,32.3 32.3,32.3h33.4v39.6h-96v141.8h60.5v217.9h87.5 1v-93.8h191.8v93.8h88.6v-217.9h60.6v-141.8zm-161.6-71.9v-26.1c0-6.3 5.2-11.5 11.5-11.5h88.6c6.3,0 11.5,5.2 11.5,11.5v26.1c0,6.3-5.2,11.5-11.5,11.5h-88.6c-6.3,0-11.5-5.3-11.5-11.5zm-277.3,0v-26.1c-2.13163e-14-6.3 5.2-11.5 11.5-11.5h88.6c6.3,0 11.5,5.2 11.5,11.5v26.1c0,6.3-5.2,11.5-11.5,11.5h-88.6c-6.3,0-11.5-5.3-11.5-11.5zm91.3,192.9l53.8-100.1h151.5l-53.8,100.1h-151.5zm-121.5,0v-100.1h151.7l-53.8,100.1h-97.9zm106.3,217.8h-46.9v-197h46.9v197zm21.9-93.8v-103.2h191.8v103.2h-191.8zm259.6,93.8h-46.9v-197h46.9v197zm61.5-217.8h-152.7l53.8-100.1h98.8v100.1z"/>
  </g>
</svg>
