<?xml version='1.0' encoding='utf-8'?>
<!DOCTYPE svg PUBLIC '-//W3C//DTD SVG 1.1//EN' 'http://www.w3.org/Graphics/SVG/1.1/DTD/svg11.dtd'>
<svg version="1.1" xmlns="http://www.w3.org/2000/svg" viewBox="0 0 512 512" xmlns:xlink="http://www.w3.org/1999/xlink" enable-background="new 0 0 512 512">
  <g>
    <g>
      <path d="m501,257h-173.1v-157.4h-111.5l-70.9,200.2v25h-13.6v-252.3h-20.9v284.6h-98v19.8h118.9v-31.3h13.6v31.3h34.7c-0.2,1.7-0.3,3.5-0.3,5.2 0,31.3 26.1,57.3 57.3,57.3 31.3,0 57.3-26.1 57.3-57.3 0-1.8-0.1-3.5-0.3-5.2h69.3c-0.2,1.7-0.3,3.5-0.3,5.2 0,31.3 26.1,57.3 57.3,57.3s57.3-26.1 57.3-57.3c0-1.8-0.1-3.5-0.3-5.2h23.5v-119.9zm-263.8,161.6c-19.8,0-36.5-16.7-36.5-36.5s16.7-36.5 36.5-36.5c19.8,0 36.5,16.7 36.5,36.5s-16.7,36.5-36.5,36.5zm69.9-61.5h-18.4c-9.4-19-29.1-32.3-51.4-32.3-22.3,0-42,13.3-51.4,32.3h-19.4v-54.2l64.5-182.4h76.1v136.5 100.1zm113.6,61.5c-19.8,0-36.5-16.7-36.5-36.5s16.7-36.5 36.5-36.5 36.5,16.7 36.5,36.5-16.7,36.5-36.5,36.5zm59.4-61.5h-8c-9.4-19-29.1-32.3-51.4-32.3s-42,13.3-51.4,32.3h-41.3v-79.2h152.2v79.2z"/>
      <path d="M89.2,207H11v128.2h78.2V207z M68.3,314.4H31.9v-86.5h36.5V314.4z"/>
    </g>
  </g>
</svg>
