<?xml version='1.0' encoding='utf-8'?>
<!DOCTYPE svg PUBLIC '-//W3C//DTD SVG 1.1//EN' 'http://www.w3.org/Graphics/SVG/1.1/DTD/svg11.dtd'>
<svg version="1.1" xmlns="http://www.w3.org/2000/svg" viewBox="0 0 512 512" xmlns:xlink="http://www.w3.org/1999/xlink" enable-background="new 0 0 512 512">
  <g>
    <g>
      <g>
        <path d="M312,471.7L67.7,225.8c-48.7-49-48.7-129.2,0-178.2c58.4-58.8,138.1-38.2,176,0L459,264.3l-14.5,14.6L230.2,62.2     c-29.6-31.4-97.8-49.5-149.1,0c-40.4,40.6-40.4,108.4,0,149l244.3,245.9c31.1,31.3,80.8,31.3,110.8,0     c31.1-31.3,31.1-81.3,0-111.5L228.2,135.1c-19.7-19.8-52.8-19.8-72.5,0s-19.7,53.1,0,72.9l181.2,182.4L322.4,405L141.2,222.7     c-28-28.1-28-74,0-102.1s73.5-28.1,101.5,0L451.8,331c51.8,52.1,24.3,117.5,0,141.7C419.1,507.1,351.8,513.5,312,471.7z"/>
      </g>
    </g>
  </g>
</svg>
