<?xml version='1.0' encoding='utf-8'?>
<!DOCTYPE svg PUBLIC '-//W3C//DTD SVG 1.1//EN' 'http://www.w3.org/Graphics/SVG/1.1/DTD/svg11.dtd'>
<svg version="1.1" xmlns="http://www.w3.org/2000/svg" viewBox="0 0 512 512" xmlns:xlink="http://www.w3.org/1999/xlink" enable-background="new 0 0 512 512">
  <g>
    <path d="m373.8,244.3l-74.7-54.5c2.4-5.8 3.8-12.2 3.8-19h-20.9c0,14.9-11.5,26.6-26.1,26.6-14.6,0-26.1-11.7-26.1-26.6 0-14.9 11.5-26.6 26.1-26.6h10.4v-21.3-6.4-105.5h-20.9v105.5 6.4 1.1c-20.9,5.3-36.5,24.5-36.5,46.9 0,6.4 1.2,12.6 3.4,18.1l-75.8,55.4h-125.5v256.6h490v-256.7h-127.2zm-149.3-37.9c8.3,7.7 19.3,12.3 31.5,12.3 11.9,0 22.6-4.4 30.8-11.7l51.1,37.3h-165.3l51.9-37.9zm256.7,274.4h-449.3v-216.3h449.3v216.3z"/>
  </g>
</svg>
