<?xml version='1.0' encoding='utf-8'?>
<!DOCTYPE svg PUBLIC '-//W3C//DTD SVG 1.1//EN' 'http://www.w3.org/Graphics/SVG/1.1/DTD/svg11.dtd'>
<svg version="1.1" xmlns="http://www.w3.org/2000/svg" viewBox="0 0 512 512" xmlns:xlink="http://www.w3.org/1999/xlink" enable-background="new 0 0 512 512">
  <g>
    <g>
      <path d="m295.6,317h-79.2c-53.2,0-95.9,42.1-97,94.6-3.1,15.8-7.3,43.1 3.1,53.6 27.2,26.3 86.6,35.8 133.5,35.8s106.3-9.5 133.4-35.8c10.4-10.5 6.3-37.9 3.1-53.6-1-52.6-43.7-94.6-96.9-94.6zm80.3,132.5c-18.8,18.9-64.6,30.5-118.9,30.5s-101.1-11.6-118.9-29.4c-2.1-3.2-1-21 2.1-35.8v-2.1c0-42.1 34.4-75.7 76.1-75.7v-1.1h80.3c41.7,0 76.1,33.6 76.1,75.7v2.1c3.2,14.7 5.3,32.6 3.2,35.8z"/>
      <path d="m256,304.4c43.8,0 78.2-34.7 78.2-77.8s-34.4-77.8-78.2-77.8c-42.7,0-78.2,34.7-78.2,77.8s34.4,77.8 78.2,77.8zm0-135.7c32.3,0 58.4,26.3 58.4,57.8 0,31.5-26.1,57.8-58.4,57.8s-58.4-26.3-58.4-57.8c2.84217e-14-31.5 26.1-57.8 58.4-57.8z"/>
      <polygon points="245.6,49.6 245.6,128.8 265.4,128.8 265.4,48.5 288.3,70.9 301.9,57.3 256,11 210.1,57.3 223.7,70.9   "/>
      <polygon points="129.9,216 129.9,196.1 48.8,196.1 71.5,174 56.9,160.3 11,205.5 56.9,251.8 71.5,237.1 49.9,216   "/>
      <polygon points="455.1,160.3 440.5,174 463.2,196.1 382.1,196.1 382.1,216 462.1,216 440.5,237.1 455.1,251.8 501,205.5   "/>
    </g>
  </g>
</svg>
