<?xml version='1.0' encoding='utf-8'?>
<!DOCTYPE svg PUBLIC '-//W3C//DTD SVG 1.1//EN' 'http://www.w3.org/Graphics/SVG/1.1/DTD/svg11.dtd'>
<svg version="1.1" xmlns="http://www.w3.org/2000/svg" viewBox="0 0 512 512" xmlns:xlink="http://www.w3.org/1999/xlink" enable-background="new 0 0 512 512">
  <g>
    <g>
      <path d="m420.1,359.1h-19.8-12.5c-43.8,0-80.2,35.4-80.2,79.2v45.8c0,0 41.7,16.7 95.8,16.7 46.9,0 96.9-15.6 96.9-15.6v-46.9c-5.68434e-14-43.8-36.5-79.2-80.2-79.2zm59.4,111.5c-13.5,3.1-43.8,10.4-76,10.4-37.5,0-64.6-7.3-76-10.4h1v-31.3c0-33.3 26-59.4 59.4-59.4h32.3c32.3,0 59.4,27.1 59.4,59.4v31.3z"/>
      <path d="m350.8,297c0,28.1 24,52.1 53.1,52.1s53.1-24 53.1-52.1c0-28.1-24-52.1-53.1-52.1s-53.1,23-53.1,52.1zm85.4,0c0,17.7-14.6,32.3-32.3,32.3s-32.3-14.6-32.3-32.3 14.6-32.3 32.3-32.3c17.7,0.1 32.3,13.6 32.3,32.3z"/>
      <path d="m123.2,360.2h-32.3c-43.8,0-80.2,35.4-79.2,79.2v45.8c0,0 41.7,15.6 95.8,15.6 45.8,0 95.8-15.6 95.8-15.6v-45.8c0.1-43.8-36.4-79.2-80.1-79.2zm60.4,110.4c-13.5,3.1-43.8,10.4-76,10.4-37.5,0-64.6-7.3-76-10.4v-31.3c0-33.3 26-59.4 59.4-59.4h33.3c32.3,0 59.4,27.1 59.4,59.4v31.3z"/>
      <path d="m107.6,349.1c29.2,0 53.1-24 53.1-52.1 0-28.1-24-52.1-53.1-52.1-29.2,0-53.1,22.9-53.1,52.1-0.1,28.2 23.9,52.1 53.1,52.1zm0-84.3c18.8,0 33.3,13.5 32.3,32.3 0,17.7-14.6,32.3-32.3,32.3-17.7,0-32.3-14.6-32.3-32.3s14.5-32.3 32.3-32.3z"/>
      <path d="M415.9,11.2H94v210.4h321.9V11.2z M396.1,200.8H114.9V32h281.3V200.8z"/>
      <path d="m225.3,135.2l-15.6,18.8c11.5,10.4 25,16.7 38.5,18.8v11.5h17.7v-11.5c10.4-2.1 19.8-5.2 25-10.4 6.3-6.3 9.4-13.5 9.4-22.9 0-9.4-3.1-16.7-8.3-21.9-5.2-5.2-14.6-9.4-26-12.5v-24.1c6.3,1 12.5,4.2 19.8,9.4l13.5-19.8c-11.5-7.3-21.9-12.5-33.3-13.5v-8.3h-18.8v10.4c-9.4,1-17.7,4.2-24,10.4-6.3,6.3-9.4,13.5-9.4,22.9s3.1,16.7 8.3,21.9c6.3,4.2 14.6,8.3 26,11.5v24c-6.2-2.2-14.5-7.4-22.8-14.7zm40.6-5.2c3.1,1 5.2,3.1 6.3,4.2 1,1 2.1,3.1 2.1,5.2 0,5.2-2.1,8.3-8.3,10.4v-19.8zm-25.1-40.7c0-5.2 2.1-7.3 7.3-9.4v19.8c-5.2-3.1-7.3-6.2-7.3-10.4z"/>
    </g>
  </g>
</svg>
