<?xml version='1.0' encoding='utf-8'?>
<!DOCTYPE svg PUBLIC '-//W3C//DTD SVG 1.1//EN' 'http://www.w3.org/Graphics/SVG/1.1/DTD/svg11.dtd'>
<svg version="1.1" xmlns="http://www.w3.org/2000/svg" viewBox="0 0 512 512" xmlns:xlink="http://www.w3.org/1999/xlink" enable-background="new 0 0 512 512">
  <g>
    <path d="M492.1,182.3L261.7,13.3c-4.2-3.1-9.4-3.1-12.5,0l-233,169.8c-3.8,2.5-5.2,6.1-5.2,9.4v298c0,6.3,5.2,10.4,10.4,10.4h1   h466.1h1c6.2,0,10.4-4.2,11.4-9.4V196.2C501,190.5,499,187,492.1,182.3z M51.6,480.2l168.7-130.7l29,21.3c3.6,3.4,8.3,3.2,12.5,0   l28-20.5l167.6,129.9H51.6z M31.8,210.6l171.7,126.5L31.8,470.2V210.6z M306.5,337.9l173.7-127.4v262L306.5,337.9z M255.5,34.2   L470.2,192L255.5,349.9L41.2,191.7L255.5,34.2z"/>
  </g>
</svg>
