<?xml version='1.0' encoding='utf-8'?>
<!DOCTYPE svg PUBLIC '-//W3C//DTD SVG 1.1//EN' 'http://www.w3.org/Graphics/SVG/1.1/DTD/svg11.dtd'>
<svg version="1.1" xmlns="http://www.w3.org/2000/svg" viewBox="0 0 512 512" xmlns:xlink="http://www.w3.org/1999/xlink" enable-background="new 0 0 512 512">
  <g>
    <g>
      <path d="M172.6,87.2h-58.4v-75H11.1v487.7h103.2V107h58.4v25h19.8V62.2h-19.8V87.2z M93.4,479H30.9V33h62.5V479z"/>
      <path d="m421.7,136.5l4.1,14.3 75-21.9-30.1-104.2-75,21.9 4.3,14.9-106.3,31.3-4.3-15-75,21.9 30.2,104.2 75-21.9-4.1-14.2 22.4-6.6 84.8,288.6 61.5-16.7-85-290 22.5-6.6zm34.4-86.8l18.8,65.6-35.4,10.4-18.8-65.6 35.4-10.4zm-198,129.2l-18.8-65.6 35.4-10.4 18.8,65.6-35.4,10.4zm51.7-30.4l-10.5-36.5 105.7-31.1 10.4,36.5-105.6,31.1zm148.4,270.1l-21.9,6.3-79-269.3 21.8-6.4 79.1,269.4z"/>
    </g>
  </g>
</svg>
