<?xml version='1.0' encoding='utf-8'?>
<!DOCTYPE svg PUBLIC '-//W3C//DTD SVG 1.1//EN' 'http://www.w3.org/Graphics/SVG/1.1/DTD/svg11.dtd'>
<svg version="1.1" xmlns="http://www.w3.org/2000/svg" viewBox="0 0 512 512" xmlns:xlink="http://www.w3.org/1999/xlink" enable-background="new 0 0 512 512">
  <g>
    <g>
      <path d="m181.1,166.7c31.2,0 57.3-26.3 58.3-58.9 0-32.6-26-58.9-58.3-58.9-32.3,0-58.3,26.3-58.3,58.9s26,58.9 58.3,58.9zm0-95.7c19.8,0 37.5,16.8 37.5,37.9 0,21-16.7,37.9-37.5,37.9-20.8,0-37.5-16.8-37.5-37.9 0-21.1 16.6-37.9 37.5-37.9z"/>
      <path d="m488.1,427.7l-111.4-112.6-23.8,24.1-42.4-42.9c25.9-30.2 41.6-69.7 41.6-112.8 0-95.3-76.4-172.5-170.6-172.5s-170.6,77.2-170.6,172.5 76.4,172.5 170.6,172.5c44,0 84.2-16.9 114.5-44.6l42.2,42.7-22.9,23.1 110.3,112.6c20.5,16.8 48.5,13 62.5,0 17.3-16.2 16.7-45.3 0-62.1zm-457.3-244.2c-1.06581e-14-84.1 67.5-152.3 150.7-152.3s150.7,68.2 150.7,152.3c0,37.8-13.6,72.3-36.1,98.9-5.3-50.7-47.7-89.3-98.3-89.3h-34.4c-50.9,0-92,38.5-98.1,87.4-21.6-26.4-34.5-60.2-34.5-97zm54.5,117.2v-7.7c0-43.1 35.4-78.9 78.1-78.9h34.4c42.7,0 78.1,35.8 78.1,78.9v9.3c-25.8,21-58.6,33.5-94.3,33.5-36.7,0-70.2-13.2-96.3-35.1zm387.2,174.3c-8.3,8.4-23.9,8.4-32.3,0l-96.8-97.9 32.3-32.6 96.8,97.9c9.4,8.4 9.4,23.2 0,32.6z"/>
    </g>
  </g>
</svg>
