<?xml version='1.0' encoding='utf-8'?>
<!DOCTYPE svg PUBLIC '-//W3C//DTD SVG 1.1//EN' 'http://www.w3.org/Graphics/SVG/1.1/DTD/svg11.dtd'>
<svg version="1.1" xmlns="http://www.w3.org/2000/svg" viewBox="0 0 512 512" xmlns:xlink="http://www.w3.org/1999/xlink" enable-background="new 0 0 512 512">
  <g>
    <path d="m70.7,500.1h370.6l-7.3-14.6c-62.5-136.4 0-355-1.1-358.1l4.2-13.5h-96.8v-40.6c0-33.3-27.1-61.4-61.4-61.4h-47.9c-33.3,0-61.4,27.1-61.4,61.4v40.6h-97.9l4.2,13.5c1,3.1 63.5,221.8 1,358.1l-6.2,14.6zm119.7-426.8c0-22.9 18.7-41.6 41.7-41.6h47.9c22.9,0 41.7,18.7 41.7,41.6v40.6h-131.3v-40.6zm-90.6,61.4h311.3c-12.5,48.9-50,220.7-2.1,344.6h-307.1c48.9-123.9 10.4-295.7-2.1-344.6z"/>
  </g>
</svg>
