<?xml version='1.0' encoding='utf-8'?>
<!DOCTYPE svg PUBLIC '-//W3C//DTD SVG 1.1//EN' 'http://www.w3.org/Graphics/SVG/1.1/DTD/svg11.dtd'>
<svg version="1.1" xmlns="http://www.w3.org/2000/svg" viewBox="0 0 512 512" xmlns:xlink="http://www.w3.org/1999/xlink" enable-background="new 0 0 512 512">
  <g>
    <g>
      <g>
        <g>
          <path d="m482.5,409.3h-431.2c-4.4,0-7.6-2.1-9.8-5.2-2.2-3.1-1.1-7.3 1.1-10.4l111.1-148c3.3-4.2 9.8-5.2 14.2-2.1l51.1,33.4 71.9-129.2c1.1-3.1 4.4-5.2 7.6-5.2s6.5,1 8.7,3.1l54.4,54.2 112.2-183.4c2.2-4.2 7.6-6.3 12-5.2 4.4,1 7.6,5.2 7.6,9.4v377.2c-5.68434e-14,7.2-5.5,11.4-10.9,11.4zm-410.5-20.8h399.6v-329.3l-98,161.5c-2.2,3.1-4.4,4.2-7.6,5.2-3.3,0-6.5-1-8.7-3.1l-53.4-53.1-70.8,126.1c-1.1,2.1-4.4,4.2-6.5,5.2-3.3,1-6.5,0-8.7-1l-52.3-34.4-93.6,122.9z"/>
        </g>
        <g>
          <rect width="490" x="11" y="480.2" height="20.8"/>
        </g>
      </g>
    </g>
  </g>
</svg>
