<?xml version='1.0' encoding='utf-8'?>
<!DOCTYPE svg PUBLIC '-//W3C//DTD SVG 1.1//EN' 'http://www.w3.org/Graphics/SVG/1.1/DTD/svg11.dtd'>
<svg version="1.1" xmlns="http://www.w3.org/2000/svg" viewBox="0 0 512 512" xmlns:xlink="http://www.w3.org/1999/xlink" enable-background="new 0 0 512 512">
  <g>
    <g>
      <g>
        <g>
          <polygon points="371.5,365.2 21.9,365.2 21.9,345.5 353.8,345.5 407.9,11.5 490.1,11.5 490.1,32.3 425.6,32.3     "/>
        </g>
        <g>
          <path d="m284.1,500.5c-29.1,0-53.1-23.9-53.1-54.1s23.9-54.1 53.1-54.1c29.1,0 53.1,23.9 53.1,54.1-0.1,30.2-24,54.1-53.1,54.1zm0-87.4c-18.7,0-33.3,15.6-33.3,33.3 0,18.7 14.6,33.3 33.3,33.3s33.3-15.6 33.3-33.3c-1.1-18.7-15.6-33.3-33.3-33.3z"/>
        </g>
        <g>
          <path d="m91.6,500.5c-29.1,0-53.1-23.9-53.1-54.1s23.9-54.1 53.1-54.1 53.1,23.9 53.1,54.1c1,30.2-22.9,54.1-53.1,54.1zm0-87.4c-18.7,0-33.3,15.6-33.3,33.3 0,18.7 14.6,33.3 33.3,33.3s33.3-15.6 33.3-33.3c1.42109e-14-18.7-14.5-33.3-33.3-33.3z"/>
        </g>
        <g>
          <path d="M308,317.4H88.5v-283H308V317.4z M109.3,297.6h177.9V54.2H109.3V297.6z"/>
        </g>
      </g>
    </g>
  </g>
</svg>
