<?xml version='1.0' encoding='utf-8'?>
<!DOCTYPE svg PUBLIC '-//W3C//DTD SVG 1.1//EN' 'http://www.w3.org/Graphics/SVG/1.1/DTD/svg11.dtd'>
<svg version="1.1" xmlns="http://www.w3.org/2000/svg" viewBox="0 0 512 512" xmlns:xlink="http://www.w3.org/1999/xlink" enable-background="new 0 0 512 512">
  <g>
    <g>
      <g>
        <g>
          <polygon points="368.6,345.4 11,345.4 11,324.3 351.9,324.3 425.9,11 501,11 501,32 442.6,32     "/>
        </g>
        <g>
          <g>
            <path d="m297.7,501c-31.3,0-56.3-25.2-56.3-56.8s25-56.8 56.3-56.8 56.3,25.2 56.3,56.8-26.1,56.8-56.3,56.8zm0-92.5c-19.8,0-35.4,15.8-35.4,35.8 0,20 15.6,35.8 35.4,35.8s35.4-15.8 35.4-35.8c5.68434e-14-20.1-16.6-35.8-35.4-35.8z"/>
          </g>
          <g>
            <path d="m87.1,501c-31.3,0-56.3-25.2-56.3-56.8s25-56.8 56.3-56.8 56.3,25.2 56.3,56.8-25,56.8-56.3,56.8zm0-92.5c-19.8,0-35.4,15.8-35.4,35.8 0,20 15.6,35.8 35.4,35.8s35.4-15.8 35.4-35.8c0.1-20.1-15.6-35.8-35.4-35.8z"/>
          </g>
        </g>
        <g>
          <path d="M318.6,293.9H66.3V20.5h252.3V293.9z M87.1,272.8h210.6V41.5H87.1V272.8z"/>
        </g>
      </g>
    </g>
  </g>
</svg>
