<?xml version='1.0' encoding='utf-8'?>
<!DOCTYPE svg PUBLIC '-//W3C//DTD SVG 1.1//EN' 'http://www.w3.org/Graphics/SVG/1.1/DTD/svg11.dtd'>
<svg version="1.1" xmlns="http://www.w3.org/2000/svg" viewBox="0 0 512 512" xmlns:xlink="http://www.w3.org/1999/xlink" enable-background="new 0 0 512 512">
  <g>
    <g>
      <path d="m229.5,352.8c-7.3-5.2-17.7-10.4-32.3-13.5h-1v-35.4c9.4,2.1 18.7,5.2 27,11.4l12.5-17.7c-12.5-8.3-26-13.5-39.5-14.6v-9.4h-12.5v9.4c-12.5,1-22.9,4.2-30.2,11.4-7.3,7.3-11.4,15.6-11.4,27 0,11.4 4.2,19.8 10.4,25 6.2,5.2 16.6,10.4 31.2,13.5v37.5c-11.4-2.1-22.9-7.3-33.3-16.6l-13.5,16.6c13.5,12.5 29.1,18.7 46.8,20.8v11.4h13.5v-13.5c12.5-1 22.9-4.2 31.2-11.4 7.3-7.3 11.4-16.6 11.4-27 0.1-10.4-3.1-18.7-10.3-24.9zm-45.8-15.6c-7.3-2.1-12.5-5.2-14.6-7.3-3.1-3.1-4.2-6.2-4.2-10.4 0-4.2 2.1-7.3 5.2-10.4s7.3-4.2 13.5-5.2v33.3zm26.1,55.1c-3.1,3.1-8.3,4.2-14.6,5.2v-34.3c7.3,2.1 12.5,5.2 15.6,7.3s4.2,6.2 4.2,10.4c2.84217e-14,5.2-2.1,8.3-5.2,11.4z"/>
      <path d="M325.2,11.5H70.3v489h370.4V127L325.2,11.5z M331.4,46.9l74.9,74.9h-74.9V46.9z M90,479.7V32.3h220.6v98.8    c0,6.2,5.2,10.4,10.4,10.4h99.9v338.1H90z"/>
    </g>
  </g>
</svg>
