<?xml version='1.0' encoding='utf-8'?>
<!DOCTYPE svg PUBLIC '-//W3C//DTD SVG 1.1//EN' 'http://www.w3.org/Graphics/SVG/1.1/DTD/svg11.dtd'>
<svg version="1.1" xmlns="http://www.w3.org/2000/svg" viewBox="0 0 512 512" xmlns:xlink="http://www.w3.org/1999/xlink" enable-background="new 0 0 512 512">
  <g>
    <g>
      <path d="m186.6,302.9c3.1-3.1 8.3-5.2 14.6-5.2 8.3,0 14.6,4.2 19.8,12.5l15.6-12.5c-8.3-13.6-20.9-20.9-37.5-20.9-12.5,0-22.9,3.1-30.2,10.4-7.3,7.3-11.5,17.7-11.5,33.4v24h-16.7v18.8h15.6v34.4h-15.6v19.8h94.9v-19.8h-56.3v-34.4h31.3v-18.8h-31.3v-25c0.1-7.3 2.1-12.5 7.3-16.7z"/>
      <path d="M325.3,11H69.9v490H441V126.7L325.3,11z M331.6,46.5l75.1,75.1h-75.1V46.5z M89.7,480.2V31.9h221v99    c0,6.3,5.2,10.4,10.4,10.4h100.1v338.8H89.7z"/>
    </g>
  </g>
</svg>
