<?xml version='1.0' encoding='utf-8'?>
<!DOCTYPE svg PUBLIC '-//W3C//DTD SVG 1.1//EN' 'http://www.w3.org/Graphics/SVG/1.1/DTD/svg11.dtd'>
<svg version="1.1" xmlns="http://www.w3.org/2000/svg" viewBox="0 0 512 512" xmlns:xlink="http://www.w3.org/1999/xlink" enable-background="new 0 0 512 512">
  <g>
    <g>
      <path d="M453.1,92.3h-98.8v-25c0-31.3-25-56.3-56.2-56.3h-86.3c-31.2,0-56.2,25-56.2,56.3v25H58.9c-27,0-47.9,21.9-47.9,48V453    c0,26.1,21.8,48,47.9,48h393.2c26,0,47.9-21.9,48.9-48V140.3C501,113.2,479.2,92.3,453.1,92.3z M175.4,67.3    c0-19.8,16.6-36.5,36.4-36.5h86.3c19.8,0,36.4,16.7,36.4,36.5v25H175.4V67.3z M480.2,453c0,14.6-12.5,27.1-27,27.1H58.9    c-14.6,0-27-12.5-27-27.1V140.3c0-14.6,12.5-27.1,27-27.1h394.3c14.6,0,27,12.5,27,27.1V453z"/>
      <path d="m313.7,312.3c-10.4-8.3-26-14.6-46.8-19.8h-1v-52.1c14.6,2.1 27,7.3 39.5,15.6l17.7-26.1c-17.7-12.5-37.5-19.8-57.2-20.9v-14.6h-17.7v13.6c-17.7,1-32.3,6.3-43.7,16.7-11.4,10.4-16.6,24-16.6,39.6 0,16.7 5.2,28.1 14.6,36.5 9.4,8.3 25,14.6 45.8,19.8v54.2c-16.6-2.1-32.3-10.4-47.9-24l-19.8,24c19.8,17.7 42.7,28.1 67.6,30.2v19.8h17.7v-19.8c18.7-1 34.3-6.3 45.8-16.7s16.6-22.9 16.6-39.6c0-15.6-4.2-28.1-14.6-36.4zm-66.5-25c-10.4-3.1-16.6-7.3-20.8-10.4-3.1-3.1-5.2-8.3-5.2-14.6 0-6.3 2.1-11.5 7.3-15.6 5.2-4.2 11.4-6.3 18.7-7.3v47.9zm39.5,80.3c-5.2,4.2-12.5,7.3-21.8,8.3v-50c11.4,3.1 18.7,6.3 22.9,10.4 4.2,4.2 6.2,9.4 6.2,15.6 5.68434e-14,6.3-2.1,11.5-7.3,15.7z"/>
    </g>
  </g>
</svg>
