<?xml version='1.0' encoding='utf-8'?>
<!DOCTYPE svg PUBLIC '-//W3C//DTD SVG 1.1//EN' 'http://www.w3.org/Graphics/SVG/1.1/DTD/svg11.dtd'>
<svg version="1.1" xmlns="http://www.w3.org/2000/svg" viewBox="0 0 512 512" xmlns:xlink="http://www.w3.org/1999/xlink" enable-background="new 0 0 512 512">
  <g>
    <path d="M353,88.1V50.6c0-21.9-17.7-39.6-39.6-39.6H200.7c-21.9,0-39.6,17.7-39.6,39.6v37.5H11v138.7c0,0,11.9,2.9,17.7,4.2v270   h456.6V230.4c4.5-1,15.6-3.6,15.6-3.6V88.1H353z M180.9,50.6c0-11.5,9.4-19.8,19.8-19.8h112.6c11.5,0,19.8,9.4,19.8,19.8v37.5   H180.9V50.6z M32.9,109h128.2H353h126.1v102.2c-24.2,5.8-99.9,21.6-165.8,28.8v-26.7H201.8v27.1c-69.5-7.8-145-24.2-168.9-29.2V109   z M291.4,233.1v66.7h-69.9l0-66.7H291.4z M465.6,480.1h-417V235.4c35.2,7.7,96.7,19.9,153.3,25.2v60h110.5h1v-60.8   c55.1-6.3,117.5-18.3,152.2-25.4V480.1z"/>
  </g>
</svg>
