<?xml version='1.0' encoding='utf-8'?>
<!DOCTYPE svg PUBLIC '-//W3C//DTD SVG 1.1//EN' 'http://www.w3.org/Graphics/SVG/1.1/DTD/svg11.dtd'>
<svg version="1.1" xmlns="http://www.w3.org/2000/svg" viewBox="0 0 512 512" xmlns:xlink="http://www.w3.org/1999/xlink" enable-background="new 0 0 512 512">
  <g>
    <g>
      <path fill="none" stroke="#000000" stroke-linejoin="round" stroke-linecap="round" stroke-width="66.666" d="m422.6,487.8" stroke-miterlimit="10"/>
    </g>
  </g>
  <g>
    <path d="m435.8,172.6l.2-.5-150.3-59.8c7.4-7.4 12.1-17.5 12.1-28.4h-20.9c0,12.5-9.4,21.9-20.9,21.9s-20.9-9.4-20.9-21.9c0-12.5 9.4-21.9 20.9-21.9h10.4v-45.8h-20.9v26.1c-17.7,4.2-31.3,20.9-31.3,40.7 0,11.4 4.6,21.7 12,29.2l-150,59.8 .2,.6h-65.4v323.2h490v-323.2h-65.2zm-329.9,19.8v283.6h-26.1v-283.6h26.1zm20.8,0h26.1v283.6h-26.1v-283.6zm46.9,0h25v283.6h-25v-283.6zm45.9,0h26.1v283.6h-26.1v-283.6zm46.9,0h26.1v283.6h-26.1v-283.6zm46.9,0h26.1v283.6h-26.1v-283.6zm47,0h25v283.6h-25v-283.6zm45.8,0h26.1v283.6h-26.1v-283.6zm-155.6-67.4l11.1,.3 119.1,47.4h-249.7l119.5-47.7zm-218.6,67.4h27.1v283.6h-27.1v-283.6zm449.3,283.6h-28.2v-283.6h28.1v283.6z"/>
  </g>
</svg>
