<?xml version='1.0' encoding='utf-8'?>
<!DOCTYPE svg PUBLIC '-//W3C//DTD SVG 1.1//EN' 'http://www.w3.org/Graphics/SVG/1.1/DTD/svg11.dtd'>
<svg version="1.1" xmlns="http://www.w3.org/2000/svg" viewBox="0 0 512 512" xmlns:xlink="http://www.w3.org/1999/xlink" enable-background="new 0 0 512 512">
  <g>
    <path d="m496.1,190.6l-39.5-29.9v-138.6c0-6.2-5.2-10.4-10.4-10.4h-49.9c-6.2,0-10.4,5.2-10.4,10.4v85.2l-123.9-93.6c-4.2-3.1-9.4-3.1-12.5-3.55271e-15l-234,176.9c-3.1,3.1-4.2,7.3-3.1,11.4 1,4.2 5.2,7.3 9.4,7.3h45.8v203.9h-18.9c-6.2,0-10.4,5.2-10.4,10.4v66.6c0,6.2 5.2,10.4 10.4,10.4h414.1c6.2,0 10.4-4.2 10.4-10.4v-66.6c0-6.2-5.2-10.4-10.4-10.4h-18.7v-203.9h45.8c4.2,0 8.3-3.1 9.4-7.3 2-4.1-0.1-8.3-3.2-11.4zm-89.5-158.1h29.1v112.5l-29.1-22v-90.5zm46.8,447.3h-394.2v-45.8h394.3v45.8zm-30.2-66.6h-335v-203.9h335v203.9zm-371.4-224.7l203.9-154 203.9,154h-407.8z"/>
  </g>
</svg>
