<?xml version='1.0' encoding='utf-8'?>
<!DOCTYPE svg PUBLIC '-//W3C//DTD SVG 1.1//EN' 'http://www.w3.org/Graphics/SVG/1.1/DTD/svg11.dtd'>
<svg version="1.1" xmlns="http://www.w3.org/2000/svg" viewBox="0 0 512 512" xmlns:xlink="http://www.w3.org/1999/xlink" enable-background="new 0 0 512 512">
  <g>
    <path d="m460.3,207.8c0-32.2-24.9-59.2-58.4-63.9v-123.8c0-7.2-8.9-10.8-15.6-6.3l-195.5,112.7h-128.7c-6.3,0-10.4,5.2-10.4,10.4v142.8c0,6.3 5.2,10.4 10.4,10.4h22.8l48.1,202.3c2.1,4.2 5.2,7.3 10.4,7.3h65.7c6.2,0 12.6-4.5 10.4-13.6l-46.8-196h13.1c0.4,0.4 0.9,0.7 1.4,1l199.1,114.7c7.2,4.2 15.6-0.3 15.6-9.4v-124.7c32.8-4.8 58.4-31.8 58.4-63.9zm-388.8-61.5h110.5v123h-110.5v-123zm125.1,332.5h-44.8l-45.6-188.7h44.8l45.6,188.7zm184.5-100l-178.3-103.3v-134.4l178.3-103.3v341zm20.9-128.2v-85.6c22.1,4.3 38.6,22 38.6,42.8-0.1,20.8-16.6,38.5-38.6,42.8z"/>
  </g>
</svg>
