<?xml version='1.0' encoding='utf-8'?>
<!DOCTYPE svg PUBLIC '-//W3C//DTD SVG 1.1//EN' 'http://www.w3.org/Graphics/SVG/1.1/DTD/svg11.dtd'>
<svg version="1.1" xmlns="http://www.w3.org/2000/svg" viewBox="0 0 512 512" xmlns:xlink="http://www.w3.org/1999/xlink" enable-background="new 0 0 512 512">
  <g>
    <path d="M501.1,485.5l-177.3-177l62.4-62.3L228,88.3l4-4c16.8-16.8,16.8-44,0-60.8h0c-16.8-16.8-44.1-16.8-60.9,0L23.7,170.8   c-16.8,16.8-16.8,44,0,60.8h0c16.8,16.8,44.1,16.8,60.9,0l4.3-4.3l157.7,158.4l61.8-61.8l177.3,177L501.1,485.5z M37.8,217.4   L37.8,217.4c-9-9-9-23.5,0-32.5L185.2,37.7c9-9,23.6-9,32.6,0h0c9,9,9,23.5,0,32.5L70.4,217.4C61.4,226.4,46.8,226.4,37.8,217.4z    M104,212.1l108.9-108.7l142.1,142.8L246.5,354.5L104,212.1z"/>
  </g>
</svg>
