<?xml version='1.0' encoding='utf-8'?>
<!DOCTYPE svg PUBLIC '-//W3C//DTD SVG 1.1//EN' 'http://www.w3.org/Graphics/SVG/1.1/DTD/svg11.dtd'>
<svg version="1.1" xmlns="http://www.w3.org/2000/svg" viewBox="0 0 512 512" xmlns:xlink="http://www.w3.org/1999/xlink" enable-background="new 0 0 512 512">
  <g>
    <path d="m494,99.5l-103.5-85.9c-1.6-1.5-4.2-2.1-6.3-2.1h-257.5c-2.1,0-4.1,0.5-6.3,2.1l-102.1,85.8c-4.3,3.5-7.3,7.5-7.3,13.1v388h254.9v-131.1c0-31.2 26-56.2 59.3-56.2 32.3,0 59.3,25 59.3,56.2v131.1h115.5 1v-389.7c0-4.9-3.3-8-7-11.3zm-107.7,51.4c0,19.8-16.7,36.4-36.5,36.4-19.8,0-36.5-16.6-36.5-36.4v-31.2h73v31.2zm-93.8,0c0,19.8-16.7,36.4-36.5,36.4s-36.5-16.6-36.5-36.4v-31.2h73v31.2zm-93.8,0c0,19.8-16.7,36.4-36.5,36.4-19.8,0-36.5-16.6-36.5-36.4v-31.2h73v31.2zm-93.9,0c0,19.8-16.7,36.4-36.5,36.4s-36.5-16.6-36.5-36.4v-31.2h73v31.2zm167.9-118.6l16.4,66.6h-66.4l15.7-66.6h34.3zm55.2,0l48.2,66.6h-65.1l-9.9-40-6.4-26.6h33.2zm-127.3,66.6h-64.8l48.2-66.6h32.3l-15.7,66.6zm206.6,20.8h73v31.2c0,19.8-16.7,36.4-36.5,36.4s-36.5-16.6-36.5-36.4v-31.2zm54-20.8h-59.4l-48.2-66.6h27.6l80,66.6zm-330.3-66.6h27.6l-47.9,66.6h-59.8l80.1-66.6zm274.4,447.4v-110.3c5.68434e-14-42.7-36.4-77-80.1-77-44.7,0-80.1,34.3-80.1,77v111.3h-213.3v-286c10,8.3 22.7,13.4 36.5,13.4 19.2,0 36.5-9.8 46.9-24.7 10.4,14.8 27.7,24.7 46.9,24.7s36.5-9.8 46.9-24.7c10.4,14.8 27.7,24.7 46.9,24.7s36.5-9.8 46.9-24.7c10.4,14.8 27.7,24.7 46.9,24.7s36.5-9.8 46.9-24.7c10.4,14.8 27.7,24.7 46.9,24.7 13.8,0 26.6-5.1 36.5-13.4v284.9h-74.7z"/>
  </g>
</svg>
