<?xml version='1.0' encoding='utf-8'?>
<!DOCTYPE svg PUBLIC '-//W3C//DTD SVG 1.1//EN' 'http://www.w3.org/Graphics/SVG/1.1/DTD/svg11.dtd'>
<svg version="1.1" xmlns="http://www.w3.org/2000/svg" viewBox="0 0 512 512" xmlns:xlink="http://www.w3.org/1999/xlink" enable-background="new 0 0 512 512">
  <g>
    <path d="m459.3,68.3h-109.5v-17.7c0-21.9-16.7-39.6-38.6-39.6h-111.5c-20.9,0-38.6,17.7-38.6,39.6v17.7h-108.4c-22.9,0-41.7,18.8-41.7,41.7v349.3c0,22.9 18.8,41.7 41.7,41.7h406.6c22.9,0 41.7-18.8 41.7-41.7v-349.3c0-22.9-18.8-41.7-41.7-41.7zm-277.3-17.7c0-10.4 8.3-18.8 18.8-18.8h110.5c10.4,0 18.8,8.3 18.8,18.8v17.7h-148.1v-17.7zm-129.3,38.6h406.6c11.5,0 20.9,9.4 20.9,20.9v97.4l-171.9,101.7c-7.5-21.7-28.2-37.5-52.3-37.5-24.1,0-44.9,15.9-52.3,37.7l-171.8-102v-97.4c-7.10543e-15-11.4 9.3-20.8 20.8-20.8zm237.7,237.7c0,19.8-15.6,35.4-34.4,35.4s-34.4-15.6-34.4-35.4 15.6-35.4 34.4-35.4 34.4,15.6 34.4,35.4zm168.9,153.2h-406.6c-11.5,0-20.9-9.4-20.9-20.9v-227.6l169.2,100.4c2.6,27.9 26.5,50.2 55,50.2 28.6,0 52.5-22.4 55-50.4l169.1-100.1v227.6c0,11.5-9.3,20.8-20.8,20.8z"/>
  </g>
</svg>
