<?xml version='1.0' encoding='utf-8'?>
<!DOCTYPE svg PUBLIC '-//W3C//DTD SVG 1.1//EN' 'http://www.w3.org/Graphics/SVG/1.1/DTD/svg11.dtd'>
<svg version="1.1" xmlns="http://www.w3.org/2000/svg" viewBox="0 0 512 512" xmlns:xlink="http://www.w3.org/1999/xlink" enable-background="new 0 0 512 512">
  <g>
    <g>
      <path d="m404,198.7c-10.4-14.8-28.1-23.3-45.9-23.3h-16.7c-14.6,0-28.1,6.4-37.5,18l-48,58.3-48-58.3c-9.4-11.7-22.9-18-37.5-18h-16.7c-18.8,0-35.4,8.5-45.9,23.3l-96.8,136.8 76.1,55.2 41.7-59.4v169.7h254.4v-169.7l41.7,59.4 76.1-55.2-97-136.8zm-18.7,100.8c-3.1-3.2-6.3-5.3-10.4-5.3-7.3,0-12.5,5.3-12.5,12.7v173.9h-212.7v-173.9c0-7.4-5.2-12.7-12.5-12.7-4.2,0-8.3,2.1-10.4,5.3l-43.8,62.6-43.8-31.8 85.5-120.9c6.3-9.5 17.7-14.8 29.2-14.8h16.7c8.3,0 16.7,4.2 21.9,10.6l63.6,77.4 63.6-77.4c5.2-6.4 13.6-10.6 21.9-10.6h16.7c11.5,0 22.9,5.3 29.2,14.8l85.5,120.9-43.8,31.8-43.9-62.6z"/>
      <path d="m256,184.9c46.9,0 85.5-39.2 85.5-87 0-47.7-38.6-87-85.5-87s-85.5,39.2-85.5,87c0,47.8 38.6,87 85.5,87zm0-153.7c36.5,1.06581e-14 65.7,29.7 65.7,66.8 0,37.1-29.2,66.8-65.7,66.8s-65.7-29.7-65.7-66.8c0-37.2 29.2-66.8 65.7-66.8z"/>
      <path d="m234.1,110.7l-10.4,12.7c8.3,7.4 17.7,12.7 27.1,13.8v8.5h13.6v-8.5c7.3,0 13.6-3.2 17.7-7.4 4.2-5.3 6.3-10.6 6.3-17 0-7.4-2.1-12.7-6.3-15.9-4.2-3.2-10.4-6.4-18.8-8.5v-17c4.2,2.1 8.3,4.2 13.6,7.4l9.4-12.7c-7.3-5.3-15.6-8.5-22.9-9.5v-6.4h-12.5v6.4c-6.3,1.1-12.5,3.2-16.7,7.4-4.2,4.2-6.3,9.5-6.3,15.9 0,6.4 1,11.7 5.2,14.8 4.2,3.2 9.4,6.4 17.7,8.5v18c-5.2-2-10.4-5.2-16.7-10.5zm30.2-4.2c2.1,1.1 3.1,2.1 4.2,3.2 1,1.1 1,2.1 1,4.2 0,4.2-2.1,6.4-5.2,7.4v-14.8zm-18.7-28.7c0-3.2 2.1-5.3 5.2-6.4v13.8c-3.1-2.1-5.2-4.2-5.2-7.4z"/>
      <rect width="63.6" x="272.7" y="306.9" height="20.2"/>
    </g>
  </g>
</svg>
